<svg width="45" height="27" viewBox="0 0 45 27" fill="none" xmlns="http://www.w3.org/2000/svg">
<path fill-rule="evenodd" clip-rule="evenodd" d="M0 0.5C0 0.223846 0.223877 0 0.5 0H14.5C14.7761 0 15 0.223846 15 0.5C15 0.776154 14.7761 1 14.5 1H0.5C0.223877 1 0 0.776154 0 0.5ZM0 4.5C0 4.22385 0.223877 4 0.5 4H11.5C11.7761 4 12 4.22385 12 4.5C12 4.77615 11.7761 5 11.5 5H0.5C0.223877 5 0 4.77615 0 4.5ZM0.5 8C0.223877 8 0 8.22385 0 8.5C0 8.77615 0.223877 9 0.5 9H14.5C14.7761 9 15 8.77615 15 8.5C15 8.22385 14.7761 8 14.5 8H0.5Z" transform="scale(3)" fill="black"/>
</svg>
