<svg width="116" height="116" viewBox="0 0 116 116" fill="none" xmlns="http://www.w3.org/2000/svg">
<path fill-rule="evenodd" clip-rule="evenodd" d="M20.8392 39.7844C20.8392 40.3367 21.2869 40.7844 21.8392 40.7844C22.3916 40.7844 22.8393 40.3367 22.8392 39.7844L22.8392 21.2079L39.7845 21.2079C40.3367 21.2079 40.7844 20.7602 40.7845 20.2079C40.7845 19.6556 40.3368 19.2079 39.7845 19.2079L22.8392 19.2078L22.8392 0.99998C22.8392 0.447725 22.3915 0 21.8393 0C21.287 0 20.8393 0.447725 20.8393 0.99998L20.8392 19.2078H1.00002C0.447725 19.2079 4.31584e-05 19.6556 0 20.2079C8.63167e-05 20.7602 0.447725 21.2079 1.00007 21.2079H20.8393L20.8392 39.7844Z" transform="translate(0 57.678) scale(2) rotate(-45)" fill="#FFDD2B"/>
</svg>
