<svg width="74" height="74" viewBox="0 0 74 74" fill="none" xmlns="http://www.w3.org/2000/svg">
<path fill-rule="evenodd" clip-rule="evenodd" d="M1 11.0001C0.44766 11 -6.47251e-05 11.4477 1.24762e-08 12.0001C-8.63043e-05 12.5522 0.447725 13 0.999893 12.9999L12 13L11.9999 24C12 24.5523 12.4477 25 13 25C13.5522 24.9999 13.9999 24.5522 14 24L14 12.9999L23.9999 12.9999C24.5522 13 25 12.5523 24.9999 11.9999C25 11.4477 24.5522 10.9999 24 11H14L14 1.00007C14 0.447703 13.5523 6.475e-05 12.9999 1.24786e-08C12.4476 -8.63043e-05 11.9999 0.447639 11.9999 1L11.9999 11L1 11.0001Z" transform="translate(1.64453 37) scale(2) rotate(-45)" fill="#FFDD2B" stroke="black" stroke-linecap="round"/>
</svg>
