<svg width="40" height="40" viewBox="0 0 40 40" fill="none" xmlns="http://www.w3.org/2000/svg">
<path fill-rule="evenodd" clip-rule="evenodd" d="M20.0002 0C8.95583 0 0 9.18053 0 20.5062C0 29.5665 5.73066 37.2532 13.6773 39.9648C14.6769 40.1546 15.0438 39.5199 15.0438 38.9783C15.0438 38.4893 15.0253 36.8739 15.0167 35.1604C9.45262 36.4009 8.27853 32.7409 8.27853 32.7409C7.36874 30.3706 6.05788 29.7404 6.05788 29.7404C4.24326 28.4676 6.19466 28.4938 6.19466 28.4938C8.20302 28.6381 9.26053 30.607 9.26053 30.607C11.0443 33.742 13.9393 32.8356 15.0806 32.3117C15.2601 30.9866 15.7784 30.0813 16.3504 29.5696C11.9081 29.051 7.23825 27.2927 7.23825 19.4351C7.23825 17.1963 8.01954 15.367 9.29894 13.9309C9.09129 13.4141 8.40671 11.3287 9.49269 8.50409C9.49269 8.50409 11.1722 7.95295 14.9942 10.6061C16.5895 10.1517 18.3005 9.92387 20.0002 9.91606C21.6999 9.92387 23.4121 10.1517 25.0105 10.6061C28.8278 7.95295 30.505 8.50409 30.505 8.50409C31.5936 11.3287 30.9087 13.4141 30.7011 13.9309C31.9834 15.367 32.7594 17.1963 32.7594 19.4351C32.7594 27.3113 28.0806 29.0456 23.6271 29.5533C24.3444 30.1896 24.9836 31.4376 24.9836 33.3508C24.9836 36.0942 24.9605 38.3025 24.9605 38.9783C24.9605 39.524 25.3205 40.1634 26.3343 39.962C34.2766 37.2474 40 29.5634 40 20.5062C40 9.18053 31.0455 0 20.0002 0Z" fill="black"/>
<path fill-rule="evenodd" clip-rule="evenodd" d="M0.535631 0.347658C0.491582 0.449872 0.335258 0.480094 0.192844 0.410141C0.0477813 0.343244 -0.0336925 0.204356 0.0133371 0.102142C0.0563924 -0.0027876 0.213047 -0.0316519 0.357779 0.0379619C0.503174 0.105199 0.585972 0.245445 0.535631 0.347658Z" transform="translate(7.03955 29.0949)" fill="black"/>
<path fill-rule="evenodd" clip-rule="evenodd" d="M0.525833 0.568607C0.430449 0.659275 0.243987 0.617167 0.117471 0.473865C-0.013351 0.330902 -0.0378594 0.139719 0.0588494 0.0476925C0.157214 -0.0429752 0.338046 -0.00052778 0.469199 0.142435C0.600021 0.287096 0.625523 0.476921 0.525833 0.568607Z" transform="translate(7.85938 29.8003)" fill="black"/>
<path fill-rule="evenodd" clip-rule="evenodd" d="M0.538359 0.701444C0.415817 0.788716 0.215445 0.706877 0.0915779 0.524523C-0.030964 0.342169 -0.030964 0.12348 0.0942274 0.0358681C0.218425 -0.0517433 0.415817 0.0270391 0.54134 0.208035C0.663551 0.393106 0.66355 0.612134 0.538359 0.701444Z" transform="translate(8.63574 30.8485)" fill="black"/>
<path fill-rule="evenodd" clip-rule="evenodd" d="M0.686201 0.676812C0.576575 0.800759 0.343083 0.76748 0.172187 0.59837C-0.00268362 0.432994 -0.0513692 0.198345 0.0585873 0.0743986C0.169537 -0.0498875 0.404354 -0.0149108 0.576575 0.152841C0.750121 0.317877 0.803112 0.554224 0.686201 0.676812Z" transform="translate(9.56787 32.0142)" fill="black"/>
<path fill-rule="evenodd" clip-rule="evenodd" d="M0.836604 0.447891C0.788249 0.608512 0.563368 0.681522 0.336832 0.613266C0.110626 0.542973 -0.0374181 0.354846 0.00828668 0.192527C0.0553163 0.0308876 0.281191 -0.0451782 0.509384 0.0278313C0.735258 0.0977847 0.883633 0.284553 0.836604 0.447891Z" transform="translate(10.9077 32.9056)" fill="black"/>
<path fill-rule="evenodd" clip-rule="evenodd" d="M0.859449 0.299291C0.86508 0.468401 0.672987 0.608647 0.435189 0.611364C0.196067 0.617137 0.00264955 0.480286 0 0.313892C0 0.143084 0.187787 0.00419606 0.42691 0.000121104C0.664707 -0.00463301 0.859449 0.131199 0.859449 0.299291Z" transform="translate(12.5215 33.1771)" fill="black"/>
<path fill-rule="evenodd" clip-rule="evenodd" d="M0.852728 0.234471C0.88121 0.399506 0.715944 0.568956 0.479803 0.613781C0.247635 0.657587 0.0326903 0.555713 0.00321404 0.392035C-0.0255999 0.222925 0.142647 0.0534748 0.374483 0.00966911C0.610956 -0.0324387 0.822589 0.0667184 0.852728 0.234471Z" transform="translate(14.0518 32.976)" fill="black"/>
</svg>
