<svg width="40" height="40" viewBox="0 0 40 40" fill="none" xmlns="http://www.w3.org/2000/svg">
<path fill-rule="evenodd" clip-rule="evenodd" d="M0 20C0 8.95432 8.9541 0 20 0C31.0459 0 40 8.95432 40 20C40 31.0457 31.0459 40 20 40C8.9541 40 0 31.0457 0 20ZM19.9712 14.6844C21.5962 14.6844 22.6924 15.3874 23.3174 15.9748L25.7598 13.5866C24.2598 12.1903 22.3081 11.3333 19.9712 11.3333C16.5864 11.3333 13.6636 13.2785 12.2402 16.1096C11.6538 17.2844 11.3174 18.6037 11.3174 20C11.3174 21.3963 11.6538 22.7155 12.2407 23.8904H12.2495C13.6729 26.7215 16.5864 28.6667 19.9707 28.6667C22.3076 28.6667 24.269 27.8963 25.7021 26.5674C27.3369 25.0555 28.2793 22.8311 28.2793 20.1926C28.2793 19.48 28.2217 18.96 28.0967 18.4207H19.9712V21.637H24.7407C24.6445 22.4363 24.125 23.64 22.9712 24.4489C22.2402 24.9592 21.2593 25.3155 19.9707 25.3155C17.6826 25.3155 15.7402 23.8037 15.0483 21.7141C14.8657 21.1748 14.7598 20.597 14.7598 20C14.7598 19.403 14.8657 18.8252 15.0386 18.2859C15.7402 16.1963 17.6826 14.6844 19.9712 14.6844Z" fill="black"/>
</svg>
