<svg width="40" height="40" viewBox="0 0 40 40" fill="none" xmlns="http://www.w3.org/2000/svg">
<path fill-rule="evenodd" clip-rule="evenodd" d="M20 0C8.9541 0 0 8.95432 0 20C0 31.0457 8.9541 40 20 40C31.0459 40 40 31.0457 40 20C40 8.95432 31.0459 0 20 0ZM14.1333 16.5649V30.183H9.60107V16.5649H14.1333ZM14.4321 12.3522C14.4023 11.017 13.4478 10 11.897 10C10.3467 10 9.33301 11.017 9.33301 12.3522C9.33301 13.6598 10.3169 14.7061 11.8384 14.7061H11.8672C13.4478 14.7061 14.4321 13.6598 14.4321 12.3522ZM25.2607 16.2451C28.2437 16.2451 30.4795 18.1919 30.4795 22.3748V30.183H25.9473V22.8973C25.9473 21.0673 25.291 19.8185 23.6504 19.8185C22.3984 19.8185 21.6523 20.6603 21.3247 21.4734C21.2051 21.7649 21.1758 22.1709 21.1758 22.5779V30.1833H16.6426C16.6426 30.1833 16.7021 17.8431 16.6426 16.5652H21.1758V18.4941C21.7773 17.5669 22.8545 16.2451 25.2607 16.2451Z" fill="black"/>
</svg>
