<svg width="40" height="40" viewBox="0 0 40 40" fill="none" xmlns="http://www.w3.org/2000/svg">
<path fill-rule="evenodd" clip-rule="evenodd" d="M20 0C8.9541 0 0 8.95432 0 20C0 31.0457 8.9541 40 20 40C31.0459 40 40 31.0457 40 20C40 8.95432 31.0459 0 20 0ZM19.4429 16.9483L19.4009 16.2563C19.2749 14.4626 20.3804 12.8243 22.1289 12.1887C22.7725 11.9627 23.8638 11.9345 24.5771 12.1322C24.8569 12.217 25.3887 12.4994 25.7661 12.7537L26.4517 13.2197L27.207 12.9796C27.627 12.8525 28.1865 12.6407 28.4385 12.4994C28.6763 12.3723 28.8857 12.3017 28.8857 12.3441C28.8857 12.5842 28.3682 13.4033 27.9346 13.8553C27.3472 14.4908 27.5151 14.5473 28.7041 14.1236C29.4175 13.8835 29.4316 13.8835 29.2915 14.1519C29.2075 14.2931 28.7739 14.7874 28.3125 15.2394C27.5288 16.0161 27.4868 16.1009 27.4868 16.7506C27.4868 17.7533 27.0112 19.8436 26.5356 20.9876C25.6543 23.1343 23.7656 25.3517 21.877 26.4674C19.2192 28.0351 15.6797 28.4306 12.7002 27.5126C11.7065 27.2019 10 26.4109 10 26.2697C10 26.2274 10.5176 26.1709 11.147 26.1567C12.4624 26.1285 13.7773 25.7613 14.8965 25.1116L15.6519 24.6597L14.7847 24.3631C13.5532 23.9394 12.4482 22.9648 12.1685 22.0468C12.0845 21.7502 12.1123 21.7361 12.896 21.7361L13.707 21.722L13.022 21.3972C12.2104 20.9876 11.4688 20.2955 11.105 19.5894C10.8394 19.0809 10.5034 17.7957 10.6016 17.6968C10.6294 17.6544 10.9233 17.7392 11.2593 17.8522C12.2241 18.2053 12.3501 18.1205 11.7905 17.5273C10.7412 16.454 10.4199 14.858 10.9233 13.3468L11.1611 12.6689L12.0845 13.5869C13.9731 15.4371 16.1973 16.5387 18.7437 16.8636L19.4429 16.9483Z" fill="black"/>
</svg>
